<svg xmlns="http://www.w3.org/2000/svg" version="1.1" xmlns:xlink="http://www.w3.org/1999/xlink" width="512" height="512" x="0" y="0" viewBox="0 0 64 64" style="enable-background:new 0 0 512 512" xml:space="preserve" class=""><g><path d="M56 40.16V14.3c0-3.209-2.646-5.819-5.9-5.819h-.199c-3.254 0-5.9 2.61-5.9 5.819v26.139l-6.714-8.674a6.014 6.014 0 0 0-2.597-1.932l-.038-.014c-.568-.221-1.167-.334-1.819-.375-.066-.009-.132-.024-.198-.031-.021-.002-.039.005-.092 0a11.494 11.494 0 0 0-4.161.334c-1.241.33-2.435.874-3.554 1.62a11.934 11.934 0 0 0-3.551 3.823L20 37.402V14.3c0-3.209-2.646-5.819-5.9-5.819h-.2c-3.253 0-5.9 2.61-5.9 5.819v25.833c-.109 2.006.033 7.08 3.701 10.855 2.093 2.157 4.569 3.071 5.625 3.461 1.296.478 2.644.799 4.017.956.713.081 1.59.25 2.235-.164.6-.385.849-1.227 1.196-1.825.801-1.383 5.951-10.307 5.951-10.307s9.539 12.42 10.054 12.417c1.783-.008 4.276-.484 5.894-1.076.876-.32 3.206-1.17 5.225-3.061.092-.084.179-.173.267-.264l.136-.138c3.671-3.778 3.811-8.851 3.701-10.828zM17.673 53.512c-.993-.367-3.319-1.226-5.255-3.221C9.025 46.799 8.897 42.062 9 40.16V14.3c0-2.657 2.198-4.819 4.9-4.819h.2c2.702 0 4.9 2.162 4.9 4.819v36.048c.06.763.299 1.892 1.102 2.936.348.457.74.817 1.142 1.103a16.003 16.003 0 0 1-3.571-.874zm12.568-11.567c-.009.014-.018.028-.025.043l-7.06 12.227c-.718-.227-1.59-.659-2.26-1.539A4.487 4.487 0 0 1 20 50.31V39.404l2.143-3.712a10.94 10.94 0 0 1 1.178-1.647 10.583 10.583 0 0 1 2.067-1.848 10.913 10.913 0 0 1 3.25-1.482 10.54 10.54 0 0 1 3.8-.307c.024.003.045-.005.069-.006.007.001.012.005.019.006a11.04 11.04 0 0 1 1.805.36h.001l.01.003a4.999 4.999 0 0 1 2.152 1.604l.327.422a4.857 4.857 0 0 0-1.222.655c-.53.403-.967.896-1.3 1.468l-4.056 7.025zm10.395 12.343-9.372-12.114 3.898-6.752a4.026 4.026 0 0 1 1.041-1.174c.354-.27.767-.466 1.26-.62l6.539 8.446v8.198c-.048.627-.243 1.553-.9 2.406-.751.988-1.775 1.421-2.465 1.61zm10.951-4.002-.142.144c-.074.076-.146.151-.229.226-1.875 1.757-3.987 2.527-4.893 2.857a15.987 15.987 0 0 1-3.578.88c.403-.284.8-.646 1.149-1.106.805-1.046 1.043-2.175 1.104-2.976V14.3c0-2.657 2.198-4.819 4.9-4.819h.199c2.702 0 4.9 2.162 4.9 4.819v25.888c.104 1.874-.023 6.609-3.412 10.098z" fill="#ffffff" opacity="1" data-original="#000000" class=""></path></g></svg>